<svg id="Capa_1" enable-background="new 0 0 512 512" height="512" viewBox="0 0 512 512" width="512" xmlns="http://www.w3.org/2000/svg"><g><path d="m451.75 60.25v-30.125h-30.125v-30.125h-30v30.125h-30.125v411.75c0 19.624 12.596 36.354 30.125 42.552v27.573h30v-27.573c17.529-6.198 30.125-22.927 30.125-42.552v-351.625h30.25v105.5h30v-135.5zm-30-.125v60.375h-30.25v-60.375zm0 90.375v30.25h-30.25v-30.25zm-15.125 306.5c-8.34 0-15.125-6.785-15.125-15.125v-231.125h30.25v231.125c0 8.34-6.785 15.125-15.125 15.125z"/><path d="m0 45v421.875c0 24.882 20.243 45.125 45.125 45.125h286.125v-512h-286.25c-24.813 0-45 20.187-45 45zm45-15h15.25v391.75h-15.125c-5.304 0-10.394.927-15.125 2.616v-379.366c0-8.271 6.729-15 15-15zm256.25 452h-256.125c-8.34 0-15.125-6.785-15.125-15.125s6.785-15.125 15.125-15.125h256.125zm0-241h-73.25v-30.25h73.25zm0-60.25h-103.25v90.25h103.25v150.75h-211v-391.75h211z"/></g></svg>