<svg height="512pt" viewBox="0 -50 512 511" width="512pt" xmlns="http://www.w3.org/2000/svg"><path d="m59.238281 210.785156 2.4375 36.570313h136.585938c-4.113281-8.558594-6.253907-17.929688-6.261719-27.425781v-9.144532zm0 0"/><path d="m265.144531 201.644531c0 5.046875-4.09375 9.140625-9.144531 9.140625s-9.144531-4.09375-9.144531-9.140625c0-5.050781 4.09375-9.144531 9.144531-9.144531s9.144531 4.09375 9.144531 9.144531zm0 0"/><path d="m443.015625 357.070312 2.433594-36.570312h-378.898438l2.433594 36.570312zm0 0"/><path d="m256 265.644531c25.234375-.03125 45.683594-20.480469 45.714844-45.714843v-64h-91.429688v64c.03125 25.234374 20.480469 45.683593 45.714844 45.714843zm0-91.429687c13.34375-.027344 24.757812 9.578125 27.019531 22.726562 2.261719 13.152344-5.292969 26.015625-17.875 30.449219v10.824219c0 5.050781-4.09375 9.140625-9.144531 9.140625s-9.144531-4.089844-9.144531-9.140625v-10.824219c-12.582031-4.433594-20.136719-17.296875-17.875-30.449219 2.261719-13.148437 13.675781-22.753906 27.019531-22.726562zm0 0"/><path d="m449.105469 265.644531h-148.398438c-24.816406 24.378907-64.597656 24.378907-89.414062 0h-148.398438l2.441407 36.570313h381.339843zm0 0"/><path d="m365.714844.5h-219.429688c-20.625.003906-40.746094 6.390625-57.597656 18.285156h334.71875c-16.878906-11.910156-37.035156-18.300781-57.691406-18.285156zm0 0"/><path d="m320 155.929688v36.570312h132.761719c5.070312-.011719 9.914062 2.082031 13.382812 5.777344 3.464844 3.699218 5.242188 8.667968 4.90625 13.722656l-9.757812 146.289062c-.667969 9.605469-8.652344 17.0625-18.285157 17.066407h-374.023437c-9.617187-.027344-17.574219-7.476563-18.242187-17.066407l-9.753907-146.289062c-.335937-5.054688 1.4375-10.023438 4.90625-13.722656 3.464844-3.695313 8.3125-5.789063 13.378907-5.777344h132.726562v-36.570312h-191.371094l16.460938 247.460937c.316406 4.8125 4.316406 8.546875 9.140625 8.539063h459.519531c4.824219.007812 8.824219-3.726563 9.144531-8.539063l16.476563-247.460937zm0 0"/><path d="m429.511719.949219c8.757812 5.609375 16.75 12.332031 23.773437 20.003906.601563.511719 1.136719 1.097656 1.589844 1.746094 14.917969 16.917969 24.6875 37.746093 28.160156 60.03125v.054687c.980469 6.046875 1.496094 12.160156 1.535156 18.285156v36.574219h27.429688v-45.714843c-.058594-47.007813-35.710938-86.328126-82.488281-90.980469zm0 0"/><path d="m27.429688 101.070312c.046874-6.125.566406-12.238281 1.554687-18.285156v-.054687c3.472656-22.285157 13.242187-43.113281 28.160156-60.03125.453125-.648438.988281-1.234375 1.589844-1.746094 7.023437-7.671875 15.011719-14.394531 23.769531-20.003906-46.78125 4.640625-82.441406 43.964843-82.503906 90.980469v45.714843h27.429688zm0 0"/><path d="m452.761719 210.785156h-132.761719v9.144532c-.007812 9.496093-2.148438 18.867187-6.261719 27.425781h136.59375zm0 0"/><path d="m68.761719 37.070312c-8.859375 10.730469-15.398438 23.183594-19.199219 36.574219h412.828125c-3.785156-13.386719-10.308594-25.839843-19.152344-36.574219zm0 0"/><path d="m466.285156 101.070312c0-3.089843-.191406-6.125-.464844-9.140624h-419.640624c-.273438 3.015624-.464844 6.050781-.464844 9.140624v36.574219h420.570312zm0 0"/></svg>