<svg height="512pt" viewBox="0 0 512 512.05277" width="512pt" xmlns="http://www.w3.org/2000/svg"><path d="m97.324219 237.765625h2.339843l17.316407-6.125 3.503906-18.84375-15.84375-14.691406zm0 0"/><path d="m301.109375 236.046875 11.101563-57.5-20.328126-12.003906zm0 0"/><path d="m208.738281 237.765625 3.785157-20.480469-19.964844 7.023438-2.507813 13.457031zm0 0"/><path d="m206.398438 200.0625-25.488282-21.722656-.109375-.09375-5.488281-4.714844-2.660156 21.777344 13.777344 11.820312zm0 0"/><path d="m154.914062 189.292969 2.480469-20.269531-41.4375 14.636718 15.132813 14.035156zm0 0"/><path d="m171.445312 237.765625 3.117188-16.730469-15.933594-13.667968-19.832031 7.003906-3.847656 20.671875 3.207031 2.722656zm0 0"/><path d="m484.597656 82.339844v9.140625h27.429688c-.078125-41.191407-27.664063-77.257813-67.402344-88.117188 25.914062 17.789063 40.980469 47.558594 39.972656 78.976563zm0 0"/><path d="m379.609375 237.765625h32.832031l-19.199218-11.34375zm0 0"/><path d="m59.261719 310.910156 2.433593 36.570313h136.59375c-4.109374-8.558594-6.25-17.933594-6.261718-27.425781v-9.144532zm0 0"/><path d="m415.019531 201.507812-19.765625-11.675781 5.011719 19.5 19.765625 11.675781zm0 0"/><path d="m443.035156 457.195312 2.441406-36.570312h-378.898437l2.441406 36.570312zm0 0"/><path d="m449.132812 365.765625h-148.40625c-24.8125 24.378906-64.585937 24.378906-89.398437 0h-148.40625l2.4375 36.574219h381.332031zm0 0"/><path d="m427.566406 187.683594c2.085938 1.230468 3.601563 3.246094 4.203125 5.59375l11.457031 44.488281h7.964844l56-128h-502.328125l56 128h17.863281l10.972657-59.355469c.089843-.34375.199219-.683594.328125-1.011718.066406-.222657.128906-.441407.210937-.660157.398438-1.027343.976563-1.976562 1.710938-2.796875v-.054687c0-.046875.101562-.054688.136719-.101563.738281-.75 1.601562-1.371094 2.550781-1.828125.15625-.074219.292969-.164062.449219-.230469.152343-.0625.335937-.199218.519531-.261718l69.578125-24.597656c.101562 0 .191406 0 .292968-.0625.097657-.0625.472657-.089844.710938-.144532.898438-.214844 1.824219-.285156 2.742188-.210937.148437 0 .277343-.054688.421874 0 .148438.054687.121094.054687.191407.0625 1.046875.160156 2.058593.496093 2.992187.996093.214844.125.425782.257813.628906.402344.355469.199219.699219.421875 1.023438.667969l14.941406 12.800781c27.296875-5.453125 55.226563-7.0625 82.96875-4.773437l-.820312-6.234375c0-.210938.054687-.402344 0-.613282-.070313-.609374-.070313-1.222656 0-1.828124 0-.210938.136718-.394532.183594-.605469.085937-.414063.203124-.820313.355468-1.214844.226563-.597656.511719-1.175781.851563-1.71875.207031-.363281.441406-.710937.691406-1.042969.5625-.660156 1.214844-1.238281 1.941406-1.71875.402344-.246094.824219-.460937 1.261719-.640625.476562-.25.976562-.460937 1.488281-.628906l44.460938-11.4375c2.375-.621094 4.894531-.273437 7.015625.960937l34.878906 20.605469.128906.082031 6.253906 3.660157c.265626.117187.523438.25.777344.402343l55.933594 33.085938zm0 0"/><path d="m447.570312 36.625h-383.085937c-1.546875-.035156-3.054687-.472656-4.378906-1.273438-4.378907 5.941407-7.777344 12.542969-10.066407 19.558594h411.976563c-2.289063-7.015625-5.683594-13.617187-10.058594-19.558594-1.324219.800782-2.839843 1.238282-4.386719 1.273438zm0 0"/><path d="m365.742188.0546875h-219.429688c-24.078125-.7070315-47.835938 5.6523435-68.34375 18.2851565h356.113281c-20.507812-12.632813-44.265625-18.992188-68.339843-18.2851565zm0 0"/><path d="m45.742188 82.339844v9.140625h420.570312v-9.140625c0-3.175782-.21875-6.183594-.503906-9.144532h-419.566406c-.28125 2.960938-.5 5.96875-.5 9.144532zm0 0"/><path d="m501.621094 256.054688h-181.59375v36.570312h132.761718c5.070313-.011719 9.917969 2.082031 13.382813 5.78125 3.46875 3.699219 5.242187 8.671875 4.902344 13.730469l-9.753907 146.285156c-.667968 9.609375-8.652343 17.0625-18.285156 17.070313h-374.015625c-9.632812-.007813-17.621093-7.460938-18.285156-17.070313l-9.757813-146.285156c-.335937-5.058594 1.441407-10.027344 4.90625-13.726563 3.46875-3.695312 8.3125-5.789062 13.378907-5.777344h132.765625v-36.578124h-181.597656c-2.53125-.007813-4.953126 1.039062-6.6875 2.886718-1.730469 1.847656-2.621094 4.328125-2.453126 6.859375l15.84375 237.710938c.316407 4.8125 4.320313 8.550781 9.144532 8.542969h459.5c4.820312.007812 8.820312-3.722657 9.144531-8.53125l15.84375-237.714844c.167969-2.527344-.722656-5.011719-2.457031-6.859375-1.730469-1.847657-4.152344-2.894531-6.6875-2.886719zm0 0"/><path d="m373 176.691406-7.542969-4.460937-19.457031 5.046875 32.011719 18.90625zm0 0"/><path d="m27.453125 82.339844c-1.007813-31.417969 14.058594-61.1875 39.972656-78.976563-39.734375 10.859375-67.320312 46.925781-67.3984372 88.117188h27.4257812zm0 0"/><path d="m207.304688 176.792969 23.011718 19.640625c.238282.230468.460938.480468.667969.738281l.253906.285156c1.503907 1.722657 2.292969 3.949219 2.214844 6.234375v.585938c.011719.257812.011719.519531 0 .777344l-6.117187 32.710937h55.5625l-8.292969-62.445313c-22.414063-2.203124-45.007813-1.707031-67.300781 1.472657zm0 0"/><path d="m265.167969 301.765625c0 5.050781-4.09375 9.144531-9.140625 9.144531-5.050782 0-9.144532-4.09375-9.144532-9.144531 0-5.046875 4.09375-9.140625 9.144532-9.140625 5.046875 0 9.140625 4.09375 9.140625 9.140625zm0 0"/><path d="m210.3125 320.054688c0 25.246093 20.464844 45.710937 45.714844 45.710937 25.246094 0 45.714844-20.464844 45.714844-45.710937v-64h-91.429688zm45.714844-45.714844c13.34375-.027344 24.757812 9.574218 27.019531 22.726562 2.261719 13.148438-5.292969 26.015625-17.878906 30.445313v10.828125c0 5.046875-4.09375 9.140625-9.140625 9.140625-5.050782 0-9.144532-4.09375-9.144532-9.140625v-10.828125c-12.585937-4.429688-20.136718-17.296875-17.878906-30.445313 2.261719-13.152344 13.679688-22.753906 27.023438-22.726562zm0 0"/><path d="m452.789062 310.910156h-132.761718v9.144532c-.011719 9.492187-2.152344 18.867187-6.265625 27.425781h136.585937zm0 0"/><path d="m343.230469 159.101562-19.730469-11.648437-19.484375 5.019531 19.769531 11.675782zm0 0"/><path d="m376.519531 216.546875-47.597656-28.125-9.527344 49.34375h31.609375zm0 0"/></svg>