<svg height="396pt" viewBox="0 -3 396.86827 396" width="396pt" xmlns="http://www.w3.org/2000/svg"><path d="m390.042969 116.484375h-127.675781c-3.773438 0-6.828126-3.058594-6.828126-6.828125s3.054688-6.824219 6.828126-6.824219h127.675781c3.773437 0 6.824219 3.054688 6.824219 6.824219s-3.054688 6.828125-6.824219 6.828125zm0 0" fill="#0e65e5"/><path d="m205.722656 109.078125 51.199219-33.554687v67.109374zm0 0" fill="#d7e9ff"/><path d="m256.921875 149.457031c-1.308594 0-2.605469-.371093-3.738281-1.113281l-51.203125-33.554688c-1.925781-1.261718-3.085938-3.410156-3.085938-5.710937s1.160157-4.445313 3.085938-5.710937l51.203125-33.550782c2.105468-1.378906 4.773437-1.480468 6.984375-.296875 2.207031 1.191407 3.582031 3.5 3.582031 6.007813v67.105468c0 2.507813-1.375 4.8125-3.582031 6.007813-1.019531.542969-2.132813.816406-3.246094.816406zm-38.75-40.378906 31.921875 20.914063v-41.832032zm0 0" fill="#0e65e5"/><path d="m390.042969 48.21875h-195.941407c-3.773437 0-6.828124-3.058594-6.828124-6.828125s3.054687-6.828125 6.828124-6.828125h195.941407c3.773437 0 6.824219 3.058594 6.824219 6.828125s-3.054688 6.828125-6.824219 6.828125zm0 0" fill="#0e65e5"/><path d="m137.453125 40.808594 51.203125-33.550782v67.105469zm0 0" fill="#d7e9ff"/><path d="m188.65625 81.191406c-1.308594 0-2.605469-.375-3.742188-1.117187l-51.199218-33.550781c-1.925782-1.265626-3.085938-3.410157-3.085938-5.710938s1.160156-4.445312 3.085938-5.710938l51.199218-33.554687c2.109376-1.375 4.773438-1.4765625 6.988282-.296875 2.207031 1.195312 3.582031 3.5 3.582031 6.007812v67.105469c0 2.507813-1.375 4.816407-3.582031 6.007813-1.023438.546875-2.132813.820312-3.246094.820312zm-38.75-40.382812 31.921875 20.917968v-41.832031zm0 0" fill="#0e65e5"/><path d="m295.113281 382.722656c40.726563 0 73.746094-35.175781 73.746094-75.90625 0-40.730468-33.019531-73.746094-73.746094-73.746094-8.652343 0-16.917969 1.566407-24.632812 4.304688-13.589844-46.394531-56.433594-80.289062-107.222657-80.289062-60.746093 0-110.136718 48.488281-111.664062 108.867187-25.652344 6.035156-44.765625 29.011719-44.765625 56.503906 0 32.089844 26.011719 60.265625 58.101563 60.265625zm0 0" fill="#94c1ff"/><g fill="#0e65e5"><path d="m295.113281 389.550781h-230.179687c-35.199219 0-64.933594-30.722656-64.933594-67.089843 0-28.5 18.257812-53.199219 45-61.761719 4.152344-62.328125 55.160156-110.441407 118.257812-110.441407 49.980469 0 94.929688 31.996094 111.636719 78.617188 6.65625-1.75 13.429688-2.632812 20.21875-2.632812 44.425781 0 80.574219 36.144531 80.574219 80.574218 0 44.847656-36.902344 82.734375-80.574219 82.734375zm-131.851562-225.636719c-57.339844 0-103.394531 44.898438-104.839844 102.214844-.082031 3.101563-2.238281 5.757813-5.261719 6.472656-23.257812 5.472657-39.503906 25.976563-39.503906 49.859376 0 28.96875 23.484375 53.4375 51.277344 53.4375h230.179687c36.273438 0 66.921875-31.632813 66.921875-69.082032 0-36.898437-30.019531-66.917968-66.921875-66.917968-7.519531 0-15.039062 1.316406-22.351562 3.910156-1.761719.632812-3.699219.511718-5.386719-.355469-1.671875-.855469-2.921875-2.359375-3.449219-4.160156-12.992187-44.382813-54.390625-75.378907-100.664062-75.378907zm0 0"/><path d="m295.109375 355.417969h-230.179687c-27.414063 0-50.335938-20.585938-56.449219-46.589844-1.054688 4.375-1.652344 8.929687-1.652344 13.632813 0 32.085937 26.011719 60.261718 58.101563 60.261718h230.179687c40.730469 0 73.746094-35.175781 73.746094-75.90625 0-4.65625-.480469-9.195312-1.304688-13.613281-6.394531 34.605469-36.367187 62.214844-72.441406 62.214844zm0 0"/><path d="m295.109375 389.550781h-230.175781c-35.199219 0-64.933594-30.722656-64.933594-67.089843 0-5.027344.621094-10.152344 1.839844-15.230469.742187-3.066407 3.488281-5.226563 6.640625-5.226563h.019531c3.160156.011719 5.902344 2.1875 6.628906 5.261719 5.625 23.945313 26.570313 41.324219 49.804688 41.324219h230.175781c31.511719 0 59.765625-24.34375 65.726563-56.625.601562-3.234375 3.414062-5.582032 6.707031-5.585938h.007812c3.285157 0 6.105469 2.339844 6.710938 5.570313.949219 5.070312 1.429687 10.070312 1.429687 14.867187-.003906 44.847656-36.90625 82.734375-80.582031 82.734375zm-278.828125-50.527343c6.867188 21.15625 26.375 36.875 48.652344 36.875h230.175781c28.085937 0 52.804687-18.964844 62.527344-44.90625-15.046875 19.066406-37.960938 31.25-62.527344 31.25h-230.175781c-18.867188 0-36.527344-8.925782-48.652344-23.21875zm0 0"/><path d="m93.082031 273.496094h-40.960937c-3.773438 0-6.824219-3.054688-6.824219-6.824219s3.050781-6.828125 6.824219-6.828125h40.960937c3.773438 0 6.828125 3.058594 6.828125 6.828125s-3.058594 6.824219-6.828125 6.824219zm0 0"/></g><path d="m342.992188 304.367188c-2.878907 0-5.550782-1.832032-6.492188-4.71875-6.421875-19.726563-24.679688-32.976563-45.445312-32.976563-3.773438 0-6.828126-3.058594-6.828126-6.828125s3.054688-6.828125 6.828126-6.828125c26.691406 0 50.179687 17.042969 58.429687 42.410156 1.167969 3.585938-.792969 7.433594-4.378906 8.601563-.699219.230468-1.410157.339844-2.113281.339844zm0 0" fill="#fff"/><path d="m99.910156 369.070312c-3.773437 0-6.828125-3.054687-6.828125-6.828124v-27.304688c0-3.769531 3.054688-6.828125 6.828125-6.828125 3.773438 0 6.824219 3.058594 6.824219 6.828125v27.304688c0 3.773437-3.054687 6.828124-6.824219 6.828124zm0 0" fill="#fff"/><path d="m113.5625 355.417969h-27.308594c-3.773437 0-6.824218-3.058594-6.824218-6.828125 0-3.769532 3.050781-6.824219 6.824218-6.824219h27.308594c3.773438 0 6.824219 3.054687 6.824219 6.824219 0 3.769531-3.054688 6.828125-6.824219 6.828125zm0 0" fill="#fff"/></svg>