<svg height="396pt" viewBox="0 -3 396.86997 396" width="396pt" xmlns="http://www.w3.org/2000/svg"><path d="m265.128906 116.484375h-127.675781c-3.773437 0-6.824219-3.054687-6.824219-6.828125 0-3.769531 3.050782-6.824219 6.824219-6.824219h127.675781c3.773438 0 6.828125 3.054688 6.828125 6.824219 0 3.773438-3.054687 6.828125-6.828125 6.828125zm0 0" fill="#0e65e5"/><path d="m321.773438 109.078125-51.199219-33.554687v67.109374zm0 0" fill="#d7e9ff"/><path d="m270.574219 149.460938c-1.113281 0-2.226563-.273438-3.246094-.820313-2.207031-1.195313-3.578125-3.5-3.578125-6.007813v-67.105468c0-2.507813 1.371094-4.8125 3.578125-6.007813 2.222656-1.183593 4.886719-1.082031 6.988281.296875l51.199219 33.550782c1.925781 1.265624 3.085937 3.410156 3.085937 5.710937s-1.160156 4.449219-3.085937 5.710937l-51.199219 33.554688c-1.136718.742188-2.4375 1.117188-3.742187 1.117188zm6.828125-61.296876v41.832032l31.917968-20.917969zm0 0" fill="#0e65e5"/><path d="m333.394531 48.21875h-195.941406c-3.773437 0-6.824219-3.058594-6.824219-6.828125s3.050782-6.824219 6.824219-6.824219h195.941406c3.773438 0 6.828125 3.054688 6.828125 6.824219s-3.054687 6.828125-6.828125 6.828125zm0 0" fill="#0e65e5"/><path d="m390.039062 40.8125-51.199218-33.554688v67.109376zm0 0" fill="#d7e9ff"/><path d="m338.839844 81.191406c-1.109375 0-2.226563-.273437-3.246094-.816406-2.203125-1.195312-3.578125-3.503906-3.578125-6.007812v-67.105469c0-2.507813 1.375-4.816407 3.578125-6.007813 2.222656-1.1835935 4.886719-1.082031 6.988281.296875l51.199219 33.550781c1.929688 1.265626 3.089844 3.410157 3.089844 5.710938s-1.160156 4.445312-3.089844 5.710938l-51.199219 33.554687c-1.132812.742187-2.433593 1.113281-3.742187 1.113281zm6.828125-61.296875v41.835938l31.921875-20.917969zm0 0" fill="#0e65e5"/><path d="m295.113281 382.726562c40.726563 0 73.746094-35.179687 73.746094-75.910156 0-40.730468-33.019531-73.746094-73.746094-73.746094-8.652343 0-16.917969 1.566407-24.632812 4.304688-13.589844-46.390625-56.433594-80.285156-107.222657-80.285156-60.746093 0-110.136718 48.484375-111.664062 108.863281-25.652344 6.035156-44.765625 29.011719-44.765625 56.503906 0 32.09375 26.011719 60.265625 58.101563 60.265625h230.183593zm0 0" fill="#94c1ff"/><g fill="#0e65e5"><path d="m295.113281 389.550781h-230.179687c-35.199219 0-64.933594-30.722656-64.933594-67.089843 0-28.5 18.257812-53.195313 45-61.761719 4.152344-62.328125 55.160156-110.441407 118.257812-110.441407 49.980469 0 94.929688 32 111.636719 78.617188 6.65625-1.75 13.429688-2.632812 20.21875-2.632812 44.425781 0 80.574219 36.148437 80.574219 80.574218 0 44.847656-36.902344 82.734375-80.574219 82.734375zm-131.851562-225.636719c-57.339844 0-103.394531 44.898438-104.839844 102.214844-.082031 3.101563-2.238281 5.761719-5.261719 6.472656-23.257812 5.472657-39.503906 25.976563-39.503906 49.859376 0 28.96875 23.484375 53.4375 51.277344 53.4375h230.179687c36.273438 0 66.921875-31.632813 66.921875-69.078126 0-36.902343-30.019531-66.921874-66.921875-66.921874-7.519531 0-15.039062 1.316406-22.351562 3.910156-1.753907.632812-3.707031.511718-5.386719-.351563-1.671875-.859375-2.921875-2.363281-3.449219-4.164062-12.992187-44.382813-54.390625-75.378907-100.664062-75.378907zm0 0"/><path d="m295.109375 355.417969h-230.179687c-27.414063 0-50.335938-20.585938-56.449219-46.589844-1.054688 4.375-1.652344 8.929687-1.652344 13.632813 0 32.089843 26.011719 60.265624 58.101563 60.265624h230.179687c40.730469 0 73.746094-35.179687 73.746094-75.910156 0-4.65625-.480469-9.195312-1.304688-13.613281-6.394531 34.609375-36.367187 62.214844-72.441406 62.214844zm0 0"/><path d="m295.109375 389.550781h-230.175781c-35.199219 0-64.933594-30.722656-64.933594-67.089843 0-5.027344.621094-10.148438 1.839844-15.230469.742187-3.066407 3.488281-5.226563 6.640625-5.226563h.019531c3.160156.011719 5.902344 2.1875 6.628906 5.265625 5.625 23.941407 26.570313 41.320313 49.804688 41.320313h230.175781c31.511719 0 59.765625-24.34375 65.726563-56.625.601562-3.234375 3.414062-5.582032 6.707031-5.585938h.007812c3.285157 0 6.105469 2.339844 6.710938 5.570313.949219 5.070312 1.429687 10.074219 1.429687 14.871093-.003906 44.84375-36.90625 82.730469-80.582031 82.730469zm-278.828125-50.523437c6.867188 21.152344 26.375 36.871094 48.652344 36.871094h230.175781c28.085937 0 52.804687-18.964844 62.527344-44.90625-15.046875 19.066406-37.960938 31.253906-62.527344 31.253906h-230.175781c-18.867188 0-36.527344-8.925782-48.652344-23.21875zm0 0"/><path d="m93.082031 273.5h-40.960937c-3.773438 0-6.824219-3.058594-6.824219-6.828125s3.050781-6.828125 6.824219-6.828125h40.960937c3.773438 0 6.828125 3.058594 6.828125 6.828125s-3.058594 6.828125-6.828125 6.828125zm0 0"/></g><path d="m342.992188 304.367188c-2.878907 0-5.550782-1.832032-6.492188-4.714844-6.421875-19.730469-24.679688-32.980469-45.445312-32.980469-3.773438 0-6.828126-3.058594-6.828126-6.828125s3.054688-6.824219 6.828126-6.824219c26.691406 0 50.179687 17.042969 58.429687 42.40625 1.167969 3.585938-.792969 7.433594-4.378906 8.601563-.699219.230468-1.410157.339844-2.113281.339844zm0 0" fill="#fff"/><path d="m79.429688 369.070312c-3.773438 0-6.828126-3.054687-6.828126-6.824218v-27.308594c0-3.769531 3.054688-6.824219 6.828126-6.824219 3.773437 0 6.824218 3.054688 6.824218 6.824219v27.308594c0 3.769531-3.054687 6.824218-6.824218 6.824218zm0 0" fill="#fff"/><path d="m93.082031 355.417969h-27.308593c-3.773438 0-6.824219-3.054688-6.824219-6.828125 0-3.769532 3.050781-6.824219 6.824219-6.824219h27.308593c3.773438 0 6.828125 3.054687 6.828125 6.824219 0 3.773437-3.058594 6.828125-6.828125 6.828125zm0 0" fill="#fff"/></svg>