<svg id="Capa_1" enable-background="new 0 0 512 512" height="512" viewBox="0 0 512 512" width="512" xmlns="http://www.w3.org/2000/svg"><g id="XMLID_3858_"><path id="XMLID_3864_" d="m50.363 296.363c0 113.57 92.067 205.637 205.637 205.637 113.57 0 205.637-92.067 205.637-205.637 0-83.921-23.67-146.246-84.767-229.184 20.195 94.354-42.646 161.172-42.646 161.172s51.712-151.44-93.707-218.351c18.91 45.018 15.483 82.3-23.771 114.881-54.593 45.313-56.501 118.11-56.501 118.11s14.888-91.8-61.22-163.254c0 131.114-48.662 132.705-48.662 216.626z" fill="#ffa96b"/><path id="XMLID_3861_" d="m334.626 370.138c-24.614-42.395-53.548-85.53-42.533-132.978-44.205 17.298-69.192 70.495-62.945 92.907-15.856-42.936-51.412-46.78-51.412-46.78s18.254 42.232-4.328 88.486c-5.57 11.805-8.705 25.011-8.705 38.93 0 50.422 40.875 91.297 91.297 91.297s91.297-40.875 91.297-91.298c.001-12.662-5.184-26.909-12.671-40.564z" fill="#ffcd69"/><path id="XMLID_1704_" d="m384.923 61.248c-2.795-3.794-7.86-5.123-12.155-3.188-4.297 1.934-6.661 6.604-5.674 11.212 7.861 36.728 3.572 73.409-12.748 109.024-.555 1.212-1.116 2.402-1.68 3.57.775-11.692.752-24.83-.827-38.728-5.08-44.728-27.791-105.711-107.142-142.222-3.747-1.724-8.167-.971-11.132 1.896-2.964 2.867-3.865 7.26-2.268 11.062 18.761 44.662 12.499 75.56-20.938 103.313-21.552 17.888-35.383 39.591-44.256 59.889-6.861-29.888-22.947-69.622-60.233-104.628-2.907-2.729-7.157-3.47-10.817-1.887-3.659 1.584-6.028 5.19-6.028 9.177 0 70.663-14.591 102.592-27.464 130.762-10.901 23.855-21.198 46.388-21.198 85.864 0 7.35.375 14.763 1.113 22.036.558 5.494 5.462 9.5 10.959 8.938 5.495-.558 9.496-5.465 8.938-10.959-.671-6.603-1.011-13.337-1.011-20.015 0-35.123 8.985-54.784 19.389-77.551 12.132-26.55 25.697-56.234 28.675-114.611 20.468 24.459 33.815 52.95 39.768 84.973 3.296 17.735 3.467 32.686 3.05 41.984-.835 6.656-.977 10.872-.996 11.572-.138 5.26 3.824 9.728 9.063 10.219 5.245.484 9.962-3.162 10.805-8.356.065-.402.707-4.489 1.067-11.373 2.71-20.588 13.056-68.361 51.949-100.643 21.064-17.484 33.218-36.688 37.154-58.712 2.395-13.398 1.664-27.701-2.25-43.281 43.222 26.316 68.032 64.61 73.85 114.121 5.119 43.566-7.007 80.064-7.125 80.416-1.522 4.456.271 9.37 4.306 11.799 4.034 2.428 9.216 1.713 12.442-1.716.686-.73 16.978-18.226 30.688-47.855 12.34-26.672 18.605-54.732 18.624-82.747 43.916 66.825 60.817 121.657 60.817 191.763 0 80.421-48.783 149.654-118.306 179.69 14.941-17.653 23.966-40.466 23.966-65.35 0-13.282-4.678-28.547-13.903-45.372-.039-.072-.08-.143-.121-.213-2.071-3.567-4.172-7.14-6.278-10.719-22.808-38.771-44.351-75.392-35.162-114.976.839-3.615-.393-7.398-3.201-9.826-2.807-2.427-6.729-3.101-10.185-1.748-33.11 12.956-56.552 43.782-65.819 70.944-19.028-22.458-42.526-25.307-43.82-25.447-3.522-.382-6.983 1.149-9.097 3.997-2.114 2.847-2.555 6.617-1.17 9.882.163.384 16.045 38.854-4.122 80.162-.019.04-.039.08-.057.12-6.411 13.584-9.662 28.119-9.662 43.197 0 25.028 9.129 47.961 24.225 65.656-36.956-15.754-68.604-42.845-90.362-78.746-2.862-4.723-9.012-6.23-13.735-3.369-4.723 2.862-6.231 9.012-3.369 13.735 18.879 31.149 45.536 57.217 77.091 75.385 32.539 18.73 69.694 28.632 107.449 28.632 57.599 0 111.75-22.43 152.479-63.159 40.729-40.728 63.159-94.88 63.159-152.479 0-85.581-23.503-149.304-86.715-235.114zm-210.22 349.455c0-12.083 2.598-23.725 7.721-34.603 14.735-30.225 13.538-58.722 10.137-76.872 9.195 5.39 20.26 15.497 27.206 34.304 1.858 5.031 7.356 7.701 12.458 6.05 5.104-1.65 7.996-7.033 6.556-12.2-3.783-13.573 10.467-51.732 40.93-72.425-1.309 39.28 19.666 74.937 40.047 109.582 2.065 3.511 4.126 7.015 6.159 10.514 7.446 13.607 11.381 25.933 11.381 35.65 0 44.828-36.47 81.297-81.297 81.297-44.828 0-81.298-36.469-81.298-81.297z"/><g id="XMLID_3859_"><path id="XMLID_117_" d="m61.06 371.98c-2.64 0-5.21-1.07-7.07-2.93-1.87-1.86-2.93-4.44-2.93-7.07s1.059-5.21 2.93-7.07c1.86-1.86 4.43-2.93 7.07-2.93 2.63 0 5.21 1.07 7.07 2.93s2.93 4.44 2.93 7.07-1.07 5.21-2.93 7.07-4.44 2.93-7.07 2.93z"/></g></g></svg>