<svg id="Capa_1" enable-background="new 0 0 512 512" height="512" viewBox="0 0 512 512" width="512" xmlns="http://www.w3.org/2000/svg"><g id="XMLID_3877_"><path id="XMLID_3889_" d="m256 502c-120.255-21.024-208-125.44-208-247.519v-157.923c75.28-.204 150.498-29.056 208-86.558 57.502 57.502 132.72 86.355 208 86.558v157.923c0 122.079-87.745 226.495-208 247.519z" fill="#e2e9ee"/><g id="XMLID_3886_"><path id="XMLID_3887_" d="m96 141.13v113.351c0 96.158 66.794 178.379 160 198.617 93.206-20.238 160-102.459 160-198.617v-113.351c-58.374-8.274-113.198-31.351-160-67.366-46.802 36.015-101.626 59.091-160 67.366z" fill="#ff7b79"/></g><path id="XMLID_3879_" d="m317.157 256.434c-19.145-32.976-41.651-66.528-33.083-103.434-34.384 13.455-53.82 54.833-48.96 72.266-12.333-33.397-39.99-36.387-39.99-36.387s14.199 32.85-3.366 68.827c-4.333 9.182-6.771 19.454-6.771 30.281-.001 39.219 31.793 71.013 71.013 71.013s71.014-31.794 71.014-71.014c0-9.849-4.033-20.931-9.857-31.552z" fill="#ffa96b"/><g id="XMLID_105_"><path id="XMLID_671_" d="m464.027 86.558c-75.865-.205-147.232-29.905-200.956-83.629-3.905-3.904-10.236-3.905-14.143 0-53.723 53.724-125.091 83.424-200.955 83.629-5.512.015-9.973 4.488-9.973 10v157.923c0 50.319 14.384 99.234 41.598 141.457 2.992 4.643 9.181 5.98 13.823 2.988s5.98-9.181 2.988-13.823c-25.128-38.986-38.409-84.154-38.409-130.622v-148.109c74.181-2.574 143.818-31.569 198-82.448 54.182 50.879 123.819 79.874 198 82.448v148.109c0 116.901-83.158 216.446-198 237.361-36.432-6.646-71.267-21.782-100.846-43.835-4.428-3.301-10.693-2.389-13.994 2.04-3.301 4.428-2.388 10.693 2.04 13.994 32.542 24.262 70.952 40.794 111.077 47.809.57.1 1.146.149 1.722.149s1.152-.05 1.723-.149c60.475-10.573 115.532-42.28 155.029-89.281 39.497-47 61.249-106.696 61.249-168.088v-157.923c0-5.512-4.461-9.985-9.973-10z"/><path id="XMLID_777_" d="m253.878 462.871c.699.152 1.411.227 2.122.227s1.423-.076 2.122-.227c47.377-10.287 90.21-36.684 120.61-74.329 30.481-37.745 47.268-85.355 47.268-134.061v-113.351c0-4.98-3.665-9.202-8.597-9.901-56.399-7.995-110.104-30.606-155.305-65.391-3.596-2.767-8.602-2.767-12.197 0-45.201 34.784-98.905 57.396-155.305 65.391-4.932.699-8.597 4.92-8.597 9.901v113.351c0 48.706 16.787 96.316 47.268 134.061 30.401 37.644 73.234 64.041 120.611 74.329zm-147.878-208.39v-104.779c54.161-9.064 105.706-30.855 150-63.426 44.295 32.571 95.84 54.362 150 63.426v104.778c0 91.013-61.571 168.164-150 188.372-88.429-20.207-150-97.358-150-188.371z"/><path id="XMLID_780_" d="m115.66 416c-2.63 0-5.21 1.07-7.07 2.93s-2.93 4.44-2.93 7.07 1.07 5.21 2.93 7.07 4.44 2.93 7.07 2.93c2.64 0 5.21-1.07 7.07-2.93s2.93-4.44 2.93-7.07-1.07-5.21-2.93-7.07-4.44-2.93-7.07-2.93z"/><path id="XMLID_869_" d="m256 369c44.671 0 81.014-36.343 81.014-81.014 0-10.71-3.73-22.944-11.088-36.36-.04-.072-.079-.143-.12-.213-1.613-2.778-3.25-5.561-4.891-8.349-17.509-29.764-34.047-57.878-27.1-87.803.839-3.615-.392-7.398-3.2-9.826-2.807-2.426-6.725-3.1-10.184-1.748-17.521 6.856-33.19 20.634-44.121 38.797-2.843 4.723-5.212 9.526-7.068 14.247-14.882-15.611-32.049-17.688-33.043-17.795-3.537-.382-7.012 1.144-9.124 4.008-2.111 2.865-2.542 6.635-1.13 9.902.124.286 12.196 28.992-3.173 60.472-.02.04-.039.079-.057.12-5.128 10.866-7.728 22.489-7.728 34.548-.001 44.671 36.342 81.014 81.013 81.014zm-55.225-106.972c10.418-21.379 10.813-41.693 8.864-56.108 5.765 4.4 11.908 11.475 16.093 22.81 1.858 5.032 7.354 7.7 12.458 6.05s7.996-7.033 6.556-12.2c-2.575-9.24 7.239-35.398 27.437-51.279.579 29.349 16.248 55.986 31.494 81.904 1.6 2.719 3.196 5.433 4.77 8.143 5.605 10.247 8.566 19.456 8.566 26.638.001 33.643-27.37 61.014-61.013 61.014s-61.014-27.371-61.014-61.014c0-9.064 1.948-17.798 5.789-25.958z"/></g></g></svg>